<svg xmlns="http://www.w3.org/2000/svg" xmlns:xlink="http://www.w3.org/1999/xlink" version="1.1" id="svg-7073" x="0px" y="0px" viewBox="0 0 512 512" style="enable-background:new 0 0 512 512;" xml:space="preserve" class="u-svg-content">
<g>
<path fill="#6733e2" d="m353.944 0h-195.89c-31.033 0-56.281 25.248-56.281 56.281v399.437c0 31.033 25.248 56.281 56.281 56.281h195.891c31.033 0 56.281-25.248 56.281-56.281v-399.437c0-31.033-25.248-56.281-56.282-56.281zm-195.89 30h195.891c14.491 0 26.281 11.79 26.281 26.281v2.001h-248.454v-2.001c0-14.491 11.79-26.281 26.282-26.281zm-26.282 368.993v-310.711h248.453v310.711zm222.172 83.005h-195.89c-14.491 0-26.281-11.79-26.281-26.281v-26.725h109.227v25.003h30v-25.003h109.227v26.725c-.001 14.491-11.791 26.281-26.283 26.281z">
</path>
<path fill="#6733e2" d="m360.457 243.178-104.458-88.783-104.458 88.783 19.428 22.858 14.604-12.413v75.568h140.852v-75.568l14.604 12.413zm-64.032 56.014h-25.426v-32.048h-30v32.048h-25.426v-71.066l40.426-34.359 40.426 34.359z"></path>
</g>
</svg>