<svg xmlns="http://www.w3.org/2000/svg" xmlns:xlink="http://www.w3.org/1999/xlink" version="1.1" id="svg-7073" x="0px" y="0px" viewBox="0 0 512 512" style="enable-background:new 0 0 512 512;" xml:space="preserve" class="u-svg-content">
<path fill="#6733e2" d="M65.9,55.7l-17.6-8.9c-0.5-0.2-1,0.1-1,0.6v17.3c0,0.5,0.5,0.9,1,0.6L65.9,57C66.4,56.8,66.4,56,65.9,55.7z"></path>
<path fill="#6733e2" d="M56.1,1.1c-30.4,0-55,24.6-55,55c0,30.4,24.6,55,55,55c30.4,0,55-24.6,55-55C111.1,25.7,86.5,1.1,56.1,1.1z M88.3,65.5 c0,7.4-6,13.4-13.4,13.4H37.3c-7.4,0-13.4-6-13.4-13.4V46.7c0-7.4,6-13.4,13.4-13.4h37.6c7.4,0,13.4,6,13.4,13.4V65.5z"></path>
</svg>